<svg xmlns="http://www.w3.org/2000/svg" aria-hidden="true" style="position:absolute;width:0;height:0;overflow:hidden"><defs><symbol id="icon-box" viewBox="0 0 32 32"><path fill="#ddd5c6" d="M7 24.014a.997.997 0 0 0-1 1 .997.997 0 0 0 1 1h6a.997.997 0 0 0 1-1 .997.997 0 0 0-1-1H7z" style="fill:var(--color1, #ddd5c6)"/><path fill="#ddd5c6" d="M6 2.014a.998.998 0 0 0-.894.555l-3 6.035a.998.998 0 0 0-.1.422.745.745 0 0 1-.006.023v19.965a.997.997 0 0 0 1 1h26a.997.997 0 0 0 1-1V9.047a1.013 1.013 0 0 0-.105-.443l-3-6.035a1.002 1.002 0 0 0-.894-.554h-20zm.617 2h6.209l-.654 4.035H4.613l2.004-4.035zm8.233 0h4.303l.674 4.035h-5.629l.652-4.035zm6.33 0h4.201l2.006 4.035h-5.533l-.674-4.035zM4 10.049h8v9.965a.996.996 0 0 0 .618.923.995.995 0 0 0 1.09-.216l3.293-3.293 3.293 3.293a.994.994 0 0 0 1.09.216 1.004 1.004 0 0 0 .618-.923v-9.965h6v17.965h-24V10.049zm10 0h6V17.6l-2.293-2.293a1.003 1.003 0 0 0-1.414 0L14 17.6v-7.551z" style="fill:var(--color1, #ddd5c6)"/></symbol><symbol id="icon-delivery" viewBox="0 0 47 32"><path fill="#ddd5c6" d="m10.944 4.855 1.802.034L8.758 17.9a13.778 13.778 0 0 1 .031.008c-3.499-.777-6.39.357-8.788 3.053l15.672 7.315c.099-.77.144-1.491.129-2.17.004.098.011.199.011.3h14.56c.004 3.09 2.539 5.591 5.662 5.591s5.658-2.505 5.662-5.591h4.766c.33-6.41-2.728-11.34-8.087-11.813h7.21c.573 0 1.04-.466 1.04-1.029v-1.13c0-.559-.463-1.014-1.025-1.014h-.091V3.677a.933.933 0 0 0-.934-.924H31.143a.933.933 0 0 0-.933.924v7.739h-6.641c-.702-.023-1.074.293-1.078.988v3.627c2.99 2.328 3.446 5.967.717 8.017h-4.425c-.114-3.488-2.129-5.614-5.476-7.964l1.996-6.087c.823-1.893.281-3.327-.922-4.33.376-1.194.645-2.215.562-3.049l2.091.428c.679.139.854.379 1.074-.27.038-.113.068-.222.087-.334.171-.89.065-.83-.664-.969L15.3 1.045h-.664l-.82-.454A4.131 4.131 0 0 0 12.298.08l-.717-.045c-.736 0-1.563-.203-1.988.469a.377.377 0 0 0-.015.113c-.3.101-.558.323-.751.627-.239.368-.383.871-.383 1.419s.148 1.051.383 1.419c.266.413.649.676 1.089.687.254.18.656.079 1.028.086zm28.19 4.296h4.728v.822h-4.728v-.822zM35.541 3.56h3.415v3.672l-1.791-1.374-1.624 1.374V3.56zm3.593 7.731h4.728v.822h-4.728v-.822zM3.002 22.365l5.047 2.366-1.639-.743a2.471 2.471 0 0 0-1.969 2.411c0 1.363 1.116 2.467 2.493 2.467s2.493-1.104 2.493-2.467c0-.421-.106-.815-.292-1.164l3.446 1.615c-.232 2.884-2.671 5.152-5.643 5.152-3.127 0-5.662-2.508-5.662-5.602a5.507 5.507 0 0 1 1.727-4.033zM9.589 1.577c.023.721.072 1.648.106 2.272a.9.9 0 0 1-.175-.207c-.159-.244-.254-.593-.254-.984s.099-.74.254-.984l.068-.098zm23.956 24.828h4.986c-.004 1.359-1.119 2.456-2.493 2.456s-2.489-1.096-2.493-2.456z" style="fill:var(--color1, #ddd5c6)"/></symbol><symbol id="icon-cash" viewBox="0 0 32 32"><path fill="#ddd5c6" d="M7.864 2.363a.681.681 0 0 0-.481.192.668.668 0 0 0-.2.478v1.519L5.218 6.517V2.211a1.82 1.82 0 0 1 .53-1.287A1.846 1.846 0 0 1 7.032.397h23.557c.48.002.941.191 1.284.527.333.344.522.803.527 1.282v19.351c0 .483-.119 1.039-.527 1.284a1.825 1.825 0 0 1-1.282.527H16.263a5.795 5.795 0 0 0-.427-1.348l.633-.63h13.304a.667.667 0 0 0 .664-.667V3.033a.673.673 0 0 0-.67-.67h-3.639v6.97l-3.845-1.922-3.826 1.922v-6.97H7.861zM2.463 20.887l-.839 4.747a.382.382 0 0 1-.079.169 1.849 1.849 0 0 0-.425.865.48.48 0 0 0 .132.48l3.041 3.049c.202.198.46.329.738.377.321.099.663.109.989.029h.024l.572-.142c.878-.214 1.643-.403 2.355-1.055l.912-.952a.316.316 0 0 1 .037-.045c.013 0 .103-.103.224-.216.622-.612 1.398-1.366.926-2.025l-.367-.367c-.177.171-.364.338-.543.501s-.319.28-.461.422a.388.388 0 0 1-.546 0 .388.388 0 0 1 0-.546c.14-.142.316-.298.496-.459.62-.543 1.319-1.168.947-1.714l-.361-.361-.053-.066c-.208.214-.438.417-.662.614-.163.145-.316.28-.459.422a.388.388 0 0 1-.661-.273.377.377 0 0 1 .115-.273c.14-.142.316-.298.496-.456.62-.546 1.319-1.171.947-1.717l-.361-.361a.512.512 0 0 1-.063-.084l-1.055 1.055a.388.388 0 0 1-.546 0 .388.388 0 0 1 0-.546l1.991-1.991c.477-.477.585-.973.462-1.35-.045-.137 0-.14-.1-.237a.86.86 0 0 0-.166-.129c-.029 0-.05-.016-.079-.045a.65.65 0 0 0-.106-.042c-.33-.111-.643.084-1.076.451l-.018.016c-.047.04-.095.082-.142.129l-4.143 4.143a.388.388 0 0 1-.659-.245.382.382 0 0 1 .077-.259l-1.508-1.511zm2.495.284.134-.132 2.724-2.727a2.655 2.655 0 0 1-1.548-2.743 2.653 2.653 0 0 1 2.157-2.295 2.665 2.665 0 0 1 2.833 1.375 2.66 2.66 0 0 1-.468 3.115l-.026.026a1.613 1.613 0 0 1 .285.322l3.381-3.368a1.343 1.343 0 0 1 0-1.886l-2.518-2.518a1.33 1.33 0 0 1-1.882 0l-7.007 7.007a1.343 1.343 0 0 1 0 1.886l1.936 1.938zm5.944-.896c-.096.134-.204.26-.322.374l-.393.396a.439.439 0 0 1 .084.063l.377.38a.407.407 0 0 1 .055.069 1.296 1.296 0 0 1 .069 1.582c.053.019.1.05.14.09l.377.377a.465.465 0 0 1 .055.071 1.318 1.318 0 0 1 0 1.674.301.301 0 0 1 .047.04l.377.377c.02.023.038.046.055.071.878 1.2-.169 2.218-1.01 3.041l-.216.216-.936.984-.032.029c-.857.791-1.709.986-2.692 1.226l-.562.14h-.016c-.469.14-.963.175-1.448.103a2.132 2.132 0 0 1-1.147-.591L.497 27.704a1.209 1.209 0 0 1-.353-1.179c.119-.456.34-.879.646-1.237l.86-4.95v-.021c0-.061.021-.129.034-.206l-1.685-1.682L11.117 7.311l6.374 6.374-6.59 6.59z" style="fill:var(--color1, #ddd5c6)"/></symbol><symbol id="icon-viber" viewBox="0 0 32 32"><path fill="none" stroke="#f5f7f8" stroke-linecap="round" stroke-linejoin="round" stroke-width="1.264" d="M16 .889C8.157.889.889 2.151.889 13.798c0 7.458 2.993 10.657 7.196 11.991v3.744c-.032.315.041.632.209.901a1.442 1.442 0 0 0 2.396.075l3.368-3.83h1.943c7.843 0 15.111-1.248 15.111-12.909S23.844.89 16.001.89z" style="stroke:var(--color2, #f5f7f8)"/><path fill="none" stroke="#f5f7f8" stroke-linecap="round" stroke-linejoin="round" stroke-width="1.264" d="M16.001 10.929a2.15 2.15 0 0 1 2.158 2.151m-2.158-7.888c2.099 0 4.113.831 5.597 2.311s2.318 3.486 2.318 5.578M16.001 8.06c1.336 0 2.617.529 3.562 1.47s1.475 2.218 1.475 3.55m-10.075 5.021c1.871 1.865 6.001 4.303 7.915 4.303.84.009 1.656-.272 2.312-.795s1.11-1.255 1.286-2.074v-1.434s-1.77-.861-2.878-1.434-2.878 1.434-2.878 1.434a9.392 9.392 0 0 1-3.598-2.151 9.347 9.347 0 0 1-2.159-3.586s2.015-1.764 1.439-2.869-1.439-2.869-1.439-2.869H9.524c-.821.175-1.556.628-2.081 1.281s-.806 1.468-.798 2.304c0 1.908 2.447 6.024 4.317 7.889z" style="stroke:var(--color2, #f5f7f8)"/></symbol><symbol id="icon-Facebook" viewBox="0 0 32 32"><path fill="#705a66" d="m22.952 17.773.829-5.46h-5.187V8.771c0-1.494.723-2.951 3.047-2.951h2.36V1.171S21.86.802 19.815.802c-4.274 0-7.065 2.616-7.065 7.349v4.162H8.001v5.46h4.749v13.2a18.663 18.663 0 0 0 5.844 0v-13.2h4.358z" style="fill:var(--color1, #705a66)"/></symbol><symbol id="icon-why3" viewBox="0 0 54 32"><path fill="none" stroke="#705a66" stroke-linecap="round" stroke-width=".951" d="M3.398.861C1.598 4.221-.16 9.03 1.109 12.839c2.327 6.982 9.288 10.175 16.288 9.422 8.423-.906 14.184-8.007 15.563-16.021.337-1.961.477-6.332-2.765-5.684-2.14.428-3.982 5.044-4.578 6.714-1.728 4.85-1.996 11.552-.401 16.46.975 2.998 2.823 6.272 6.065 7.21 3.954 1.144 8.988-.254 12.035-2.899 4.375-3.797 7.26-9.831 9.155-15.201.546-1.546.494-1.55.667-2.766.019-.133.038.266.038.4" style="stroke:var(--color1, #705a66)"/></symbol><symbol id="icon-why2" viewBox="0 0 10 32"><path fill="none" stroke="#705a66" stroke-linecap="round" stroke-width="1.067" d="M6.467.812C5.166 2.975 3.802 5.113 2.593 7.33.857 10.513.362 13.995 1.08 17.561c1.031 5.12 3.694 10.821 8.294 13.581" style="stroke:var(--color1, #705a66)"/></symbol><symbol id="icon-why1" viewBox="0 0 97 32"><path fill="none" stroke="#705a66" stroke-linecap="round" stroke-width="1.746" d="M95.541 30.868C93.979 14.553 77.046 8.584 62.575 8.734c-6.752.07-13.091 3.604-16.454 9.545-1.267 2.237-2.115 4.649-2.181 7.232-.053 2.06.494 2.772 2.533 3.308 5.066 1.333 10.701 1.223 13.38-4.099 4.777-9.49-8.415-16.49-15.312-19.235C38.727 3.171 32.752 2.1 26.535 1.664c-4.792-.336-10.013-.663-14.551 1.244-4.39 1.845-9.086 6.33-10.774 10.833" style="stroke:var(--color1, #705a66)"/></symbol><symbol id="icon-Instagram" viewBox="0 0 32 32"><path fill="#705a66" d="M31.91 9.405c-.077-1.704-.352-2.87-.743-3.888-.41-1.05-.954-1.947-1.844-2.831s-1.78-1.441-2.829-1.845C25.476.444 24.311.175 22.608.098 20.899.021 20.355.002 16.015.002c-4.346 0-4.891.019-6.593.096S6.554.45 5.536.841c-1.056.41-1.952.954-2.836 1.845S1.26 4.467.856 5.517C.466 6.535.19 7.701.113 9.405c-.077 1.71-.096 2.255-.096 6.597 0 4.349.019 4.894.096 6.597s.352 2.869.743 3.888c.41 1.051.954 1.947 1.844 2.831a7.727 7.727 0 0 0 2.829 1.845c1.018.397 2.183.666 3.886.743 1.709.077 2.253.096 6.593.096 4.347 0 4.891-.019 6.593-.096s2.868-.352 3.886-.743c1.05-.41 1.946-.954 2.829-1.845s1.44-1.781 1.844-2.831c.397-1.018.666-2.184.743-3.888.077-1.71.096-2.255.096-6.597s-.013-4.893-.09-6.597zm-2.874 13.067c-.071 1.563-.333 2.415-.551 2.972-.288.743-.64 1.281-1.203 1.845s-1.095.903-1.844 1.204c-.563.218-1.415.48-2.97.551-1.684.077-2.189.096-6.465.096s-4.782-.019-6.465-.096c-1.562-.071-2.413-.333-2.97-.551-.743-.288-1.28-.641-1.844-1.204s-.903-1.095-1.203-1.845c-.218-.564-.48-1.416-.55-2.972-.077-1.685-.096-2.191-.096-6.469s.019-4.785.096-6.469c.07-1.563.333-2.415.55-2.972.288-.743.64-1.281 1.203-1.845s1.095-.903 1.844-1.204c.563-.218 1.415-.48 2.97-.551 1.684-.077 2.189-.096 6.465-.096s4.782.019 6.465.096c1.562.07 2.413.333 2.97.551.743.288 1.28.64 1.844 1.204s.903 1.095 1.203 1.845c.218.564.48 1.416.551 2.972.077 1.685.096 2.191.096 6.469s-.026 4.785-.096 6.469z" style="fill:var(--color1, #705a66)"/><path fill="#705a66" d="M16.003 7.778a8.218 8.218 0 0 0-8.219 8.224c0 4.548 3.681 8.224 8.219 8.224s8.219-3.689 8.219-8.224a8.214 8.214 0 0 0-8.219-8.224zm0 13.56c-2.945 0-5.332-2.389-5.332-5.335s2.388-5.335 5.332-5.335c2.945 0 5.332 2.389 5.332 5.335s-2.388 5.335-5.332 5.335zM24.543 9.38c1.061 0 1.92-.86 1.92-1.922a1.92 1.92 0 1 0-1.92 1.922z" style="fill:var(--color1, #705a66)"/><path fill="#705a66" d="M0 16.002c0 4.349.019 4.894.096 6.597s.352 2.869.743 3.888c.41 1.051.954 1.947 1.844 2.831a7.804 7.804 0 0 0 2.829 1.845c1.018.397 2.183.666 3.886.743 1.709.077 2.253.096 6.593.096 4.347 0 4.891-.019 6.593-.096s2.868-.352 3.886-.743c1.05-.41 1.946-.954 2.829-1.845a7.82 7.82 0 0 0 1.844-2.831c.397-1.018.666-2.184.743-3.888.077-1.71.096-2.255.096-6.597 0-4.349-.019-4.893-.096-6.597s-.352-2.87-.743-3.888c-.41-1.05-.954-1.947-1.844-2.831A7.649 7.649 0 0 0 26.476.841C25.458.444 24.293.175 22.59.098 20.881.021 20.337.002 15.997.002c-4.346 0-4.891.019-6.593.096S6.536.45 5.518.841c-1.05.41-1.946.954-2.829 1.845S1.249 4.467.845 5.517C.448 6.535.173 7.701.096 9.405S0 11.653 0 16.002zm2.887 0c0-4.272.019-4.785.096-6.469.07-1.563.333-2.415.55-2.972.288-.743.64-1.281 1.203-1.845s1.095-.903 1.844-1.204c.563-.218 1.415-.48 2.97-.551 1.684-.077 2.189-.096 6.465-.096s4.782.019 6.465.096c1.562.07 2.413.333 2.97.551.743.288 1.28.64 1.844 1.204s.903 1.095 1.203 1.845c.218.564.48 1.416.551 2.972.077 1.685.096 2.191.096 6.469s-.019 4.785-.096 6.469c-.071 1.563-.333 2.415-.551 2.972-.288.743-.64 1.281-1.203 1.845s-1.095.903-1.844 1.204c-.563.218-1.415.48-2.97.551-1.684.077-2.189.096-6.465.096s-4.782-.019-6.465-.096c-1.562-.071-2.413-.333-2.97-.551-.743-.288-1.28-.641-1.844-1.204s-.903-1.095-1.203-1.845c-.218-.564-.48-1.416-.55-2.972-.083-1.685-.096-2.197-.096-6.469z" style="fill:var(--color1, #705a66)"/></symbol><symbol id="icon-arrow" viewBox="0 0 168 32"><path fill="#f5eee0" d="M165.414 17.414a2 2 0 0 0 0-2.828L152.686 1.858a2 2 0 1 0-2.828 2.828L161.172 16l-11.314 11.314a2 2 0 1 0 2.828 2.828l12.728-12.728zM0 18h164v-4H0v4z" style="fill:var(--color2, #f5eee0)"/></symbol><symbol id="icon-cream1" viewBox="0 0 20 32"><path fill="none" stroke="#705a66" stroke-linecap="round" stroke-width=".787" d="M.588 1.353C2.026 1.065 2.706.345 4.362.566 7.43.975 9.408 4.001 9.664 6.863c.057.643-.176 8.081-2.338 6.459-1.915-1.437.364-4.231 2.431-3.357 3.315 1.402 4.584 5.444 3.658 8.705-.865 3.044-2.888 1.34-.278 1.065 6.532-.688 8.673 11.622 2.037 11.622" style="stroke:var(--color1, #705a66)"/></symbol><symbol id="icon-cream2" viewBox="0 0 15 32"><path fill="none" stroke="#705a66" stroke-linecap="round" stroke-width=".75" d="M8.905.964c.231.033.462.058-.088-.309C7.048-.524 3.895 2.679 3.168 3.833 1.607 6.308-1.318 12.92 2.065 15.175c1.184.79 3.152.967 4.457.397.71-.31 1.664-1.123.397-1.412-6.741-1.541-8.593 17.635 2.957 11.585 1.02-.534 3.405-1.563 3.928-2.758.379-.867-1.78.765-2.449 1.434-.987.987-1.763 2.719-1.611 4.126.338 3.134 2.735 3.001 5.119 3.001" style="stroke:var(--color1, #705a66)"/></symbol><symbol id="icon-eclair1" viewBox="0 0 22 32"><path fill="none" stroke="#705a66" stroke-linecap="round" stroke-width="3.2" d="M1.785 1.989c10.918 5.459 13.567 17.292 18.666 27.999" style="stroke:var(--color1, #705a66)"/></symbol><symbol id="icon-eclair2" viewBox="0 0 88 32"><path fill="none" stroke="#705a66" stroke-linecap="round" stroke-width="4" d="M2.291 2.037C4.221 12.653 15.72 22.121 24.759 26.45c18.099 8.667 44.641-5.247 61.14-12.746" style="stroke:var(--color1, #705a66)"/></symbol><symbol id="icon-menu" viewBox="0 0 36 32"><path fill="#705a66" d="M9.946 8.649h16.432a1.297 1.297 0 0 1 0 2.594H9.946a1.297 1.297 0 0 1 0-2.594zM9.946 14.703h16.432a1.297 1.297 0 0 1 0 2.594H9.946a1.297 1.297 0 0 1 0-2.594zM9.946 20.757h16.432a1.297 1.297 0 0 1 0 2.594H9.946a1.297 1.297 0 0 1 0-2.594z" style="fill:var(--color1, #705a66)"/></symbol><symbol id="icon-tart1" viewBox="0 0 11 32"><path fill="none" stroke="#705a66" stroke-linecap="round" stroke-width="2.595" d="M1.331 1.98c8.436 4.962 7.995 19.482 7.995 27.984" style="stroke:var(--color1, #705a66)"/></symbol><symbol id="icon-tart2" viewBox="0 0 12 32"><path fill="none" stroke="#705a66" stroke-linecap="round" stroke-width="5.053" d="M8.645 29.155c-.718-7.903-1.819-25.95-5.19-25.95" style="stroke:var(--color1, #705a66)"/></symbol><symbol id="icon-tart3" viewBox="0 0 26 32"><path fill="none" stroke="#705a66" stroke-linecap="round" stroke-width="4.174" d="M24.022 28.826C14.292 26.88 5.845 11.251 2.585 3.101" style="stroke:var(--color1, #705a66)"/></symbol><symbol id="icon-tart4" viewBox="0 0 12 32"><path fill="none" stroke="#705a66" stroke-linecap="round" stroke-width="1.2" d="M4.641.851C3.958 5.382 2.41 9.668 1.404 14.106c-.581 2.561-.915 4.903.074 7.458 1.337 3.451 3.916 6.146 7.096 7.95.835.474 1.617 1.028 2.412 1.558" style="stroke:var(--color1, #705a66)"/></symbol><symbol id="icon-Telegram" viewBox="0 0 37 32"><path fill="#705a66" d="M14.559 32.002a1.143 1.143 0 0 1-1.143-1.142v-10.4c0-.327.14-.638.386-.856l4.818-4.27-7.96 4.628a1.15 1.15 0 0 1-1.085.035L.632 15.54a1.141 1.141 0 0 1 .096-2.087L35.013.082a1.132 1.132 0 0 1 1.15.19c.32.268.468.69.386 1.1l-5.962 29.714a1.14 1.14 0 0 1-.648.815 1.138 1.138 0 0 1-1.039-.047l-9.56-5.444-3.866 5.14a1.148 1.148 0 0 1-.914.454zm4.471-8.229c.194 0 .388.049.565.149l9.059 5.159 5.24-26.113L3.961 14.643l6.083 3.032L27.4 7.585a1.137 1.137 0 0 1 1.499.318 1.14 1.14 0 0 1-.168 1.525l-13.03 11.544v6.467l2.415-3.21a1.14 1.14 0 0 1 .913-.457z" style="fill:var(--color1, #705a66)"/></symbol><symbol id="icon-Shopping-cart" viewBox="0 0 32 32"><path fill="#705a66" d="M9.333 24c-1.467 0-2.653 1.2-2.653 2.667s1.187 2.667 2.653 2.667c1.467 0 2.667-1.2 2.667-2.667S10.8 24 9.333 24zm-8-21.333v2.667H4l4.8 10.12L7 18.721a2.58 2.58 0 0 0-.333 1.28c0 1.467 1.2 2.667 2.667 2.667h16v-2.667H9.894a.33.33 0 0 1-.333-.333l.04-.16 1.2-2.173h9.933c1 0 1.88-.547 2.333-1.373l4.773-8.653a1.3 1.3 0 0 0 .16-.64c0-.733-.6-1.333-1.333-1.333H6.947L5.694 2.669h-4.36zM22.667 24c-1.467 0-2.653 1.2-2.653 2.667s1.187 2.667 2.653 2.667c1.467 0 2.667-1.2 2.667-2.667S24.134 24 22.667 24z" style="fill:var(--color1, #705a66)"/></symbol><symbol id="icon-line" viewBox="0 0 0 32"><path fill="none" stroke="#ddd5c6" stroke-width=".132" d="M.066 0v32" style="stroke:var(--color1, #ddd5c6)"/></symbol><symbol id="icon-name" viewBox="0 0 55 32"><path fill="none" stroke="#705a66" stroke-linecap="round" stroke-width=".653" d="M25.334.995c-.201-1.405-.827-1.124-1.756-.367-2.834 2.311-4.529 5.59-6.31 8.722-2.338 4.111-4.29 8.416-6.522 12.582-1.564 2.917-3.462 6.269-6.349 8.085-1.683 1.059-3.8.565-4.265-1.563-.598-2.738.927-5.434 2.759-7.333 2.673-2.769 5.882-3.777 9.455-4.882 1.16-.359 2.734-.65 3.608-1.524" style="stroke:var(--color1, #705a66)"/><path fill="none" stroke="#705a66" stroke-linecap="round" stroke-width=".653" d="M21.165 5.163c-.496.124-1.145 1.383-1.351 1.717-1.474 2.399-2.588 5.061-3.695 7.642-2.349 5.473-4.198 11.112-5.721 16.865M16.129 24.44c4.088-2.373 7.973-5.35 11.289-8.732.918-.936 3.165-2.87 3.165-4.351 0-1.503-3.097 1.245-3.203 1.341-4.068 3.692-7.855 8.406-9.417 13.768-.137.47-.615 2.506.579 1.737 1.196-.771 2.237-2.115 2.895-3.358 1.288-2.432-1.84-.881-2.653-.067-.287.286-.79.964-.28 1.322.747.525 2.127-.256 2.788-.56 1.462-.671 2.945-1.32 4.371-2.065.424-.222 1.516-1.065 1.283-.646-.325.584-1.585 2.385-.01 2.248.893-.078 1.733-.723 2.479-1.158.642-.374 2.22-1.004 2.325-1.91.21-1.811-3.529-.234-3.994.347-.352.44-.44 1.092.067 1.447.756.53 1.863.064 2.615-.231 1.158-.455 2.249-1.08 3.367-1.621.5-.242 1.362-.791 1.92-.386.583.424-.351 1.694.772 1.409.799-.203 1.651-.599 2.373-.984.217-.116 1.368-1.108 1.64-.984.159.072-.227.31-.203.482.07.488 1.025.219 1.283.135 2.598-.847 4.659-3.688 6.329-5.693" style="stroke:var(--color1, #705a66)"/><path fill="none" stroke="#705a66" stroke-linecap="round" stroke-width=".653" d="M50.169 12.283c-.078-.353-3.257 3.622-3.599 4.197-1.415 2.384-2.605 4.894-3.695 7.439" style="stroke:var(--color1, #705a66)"/><path fill="none" stroke="#705a66" stroke-linecap="round" stroke-width=".653" d="M43.743 15.062c3.133.416 6.255.905 9.378 1.389M33.322 28.956c.775-1.198.804.686.772 1.206-.033.522-.27 1.252-.174 1.766.071.38 1.432-1.033 1.486-1.1.686-.842 1.274-1.846 2.238-2.412.486-.285.473.322.56.637.501 1.815 2.686.828 3.695.058.449-.343 1.835-2.282 2.151-1.235.557 1.844 3.097.605 3.917-.309 1.676-1.866-1.095-2.56-1.254-.868-.267 2.836 6.875.18 7.97-.174" style="stroke:var(--color1, #705a66)"/></symbol></defs></svg>