<svg xmlns="http://www.w3.org/2000/svg" aria-hidden="true" style="position:absolute;width:0;height:0;overflow:hidden"><defs><symbol id="icon-Facebook" viewBox="0 0 32 32"><path fill="#705a66" d="m22.952 17.773.829-5.46h-5.187V8.771c0-1.494.723-2.951 3.047-2.951h2.36V1.171S21.86.802 19.815.802c-4.274 0-7.065 2.616-7.065 7.349v4.162H8.001v5.46h4.749v13.2a18.663 18.663 0 0 0 5.844 0v-13.2h4.358z" style="fill:var(--color1, #705a66)"/></symbol><symbol id="icon-Instagram" viewBox="0 0 32 32"><path fill="#705a66" d="M31.91 9.405c-.077-1.704-.352-2.87-.743-3.888-.41-1.05-.954-1.947-1.844-2.831s-1.78-1.441-2.829-1.845C25.476.444 24.311.175 22.608.098 20.899.021 20.355.002 16.015.002c-4.346 0-4.891.019-6.593.096S6.554.45 5.536.841c-1.056.41-1.952.954-2.836 1.845S1.26 4.467.856 5.517C.466 6.535.19 7.701.113 9.405c-.077 1.71-.096 2.255-.096 6.597 0 4.349.019 4.894.096 6.597s.352 2.869.743 3.888c.41 1.051.954 1.947 1.844 2.831a7.727 7.727 0 0 0 2.829 1.845c1.018.397 2.183.666 3.886.743 1.709.077 2.253.096 6.593.096 4.347 0 4.891-.019 6.593-.096s2.868-.352 3.886-.743c1.05-.41 1.946-.954 2.829-1.845s1.44-1.781 1.844-2.831c.397-1.018.666-2.184.743-3.888.077-1.71.096-2.255.096-6.597s-.013-4.893-.09-6.597zm-2.874 13.067c-.071 1.563-.333 2.415-.551 2.972-.288.743-.64 1.281-1.203 1.845s-1.095.903-1.844 1.204c-.563.218-1.415.48-2.97.551-1.684.077-2.189.096-6.465.096s-4.782-.019-6.465-.096c-1.562-.071-2.413-.333-2.97-.551-.743-.288-1.28-.641-1.844-1.204s-.903-1.095-1.203-1.845c-.218-.564-.48-1.416-.55-2.972-.077-1.685-.096-2.191-.096-6.469s.019-4.785.096-6.469c.07-1.563.333-2.415.55-2.972.288-.743.64-1.281 1.203-1.845s1.095-.903 1.844-1.204c.563-.218 1.415-.48 2.97-.551 1.684-.077 2.189-.096 6.465-.096s4.782.019 6.465.096c1.562.07 2.413.333 2.97.551.743.288 1.28.64 1.844 1.204s.903 1.095 1.203 1.845c.218.564.48 1.416.551 2.972.077 1.685.096 2.191.096 6.469s-.026 4.785-.096 6.469z" style="fill:var(--color1, #705a66)"/><path fill="#705a66" d="M16.003 7.778a8.218 8.218 0 0 0-8.219 8.224c0 4.548 3.681 8.224 8.219 8.224s8.219-3.689 8.219-8.224a8.214 8.214 0 0 0-8.219-8.224zm0 13.56c-2.945 0-5.332-2.389-5.332-5.335s2.388-5.335 5.332-5.335c2.945 0 5.332 2.389 5.332 5.335s-2.388 5.335-5.332 5.335zM24.543 9.38c1.061 0 1.92-.86 1.92-1.922a1.92 1.92 0 1 0-1.92 1.922z" style="fill:var(--color1, #705a66)"/><path fill="#705a66" d="M0 16.002c0 4.349.019 4.894.096 6.597s.352 2.869.743 3.888c.41 1.051.954 1.947 1.844 2.831a7.804 7.804 0 0 0 2.829 1.845c1.018.397 2.183.666 3.886.743 1.709.077 2.253.096 6.593.096 4.347 0 4.891-.019 6.593-.096s2.868-.352 3.886-.743c1.05-.41 1.946-.954 2.829-1.845a7.82 7.82 0 0 0 1.844-2.831c.397-1.018.666-2.184.743-3.888.077-1.71.096-2.255.096-6.597 0-4.349-.019-4.893-.096-6.597s-.352-2.87-.743-3.888c-.41-1.05-.954-1.947-1.844-2.831A7.649 7.649 0 0 0 26.476.841C25.458.444 24.293.175 22.59.098 20.881.021 20.337.002 15.997.002c-4.346 0-4.891.019-6.593.096S6.536.45 5.518.841c-1.05.41-1.946.954-2.829 1.845S1.249 4.467.845 5.517C.448 6.535.173 7.701.096 9.405S0 11.653 0 16.002zm2.887 0c0-4.272.019-4.785.096-6.469.07-1.563.333-2.415.55-2.972.288-.743.64-1.281 1.203-1.845s1.095-.903 1.844-1.204c.563-.218 1.415-.48 2.97-.551 1.684-.077 2.189-.096 6.465-.096s4.782.019 6.465.096c1.562.07 2.413.333 2.97.551.743.288 1.28.64 1.844 1.204s.903 1.095 1.203 1.845c.218.564.48 1.416.551 2.972.077 1.685.096 2.191.096 6.469s-.019 4.785-.096 6.469c-.071 1.563-.333 2.415-.551 2.972-.288.743-.64 1.281-1.203 1.845s-1.095.903-1.844 1.204c-.563.218-1.415.48-2.97.551-1.684.077-2.189.096-6.465.096s-4.782-.019-6.465-.096c-1.562-.071-2.413-.333-2.97-.551-.743-.288-1.28-.641-1.844-1.204s-.903-1.095-1.203-1.845c-.218-.564-.48-1.416-.55-2.972-.083-1.685-.096-2.197-.096-6.469z" style="fill:var(--color1, #705a66)"/></symbol><symbol id="icon-arrow" viewBox="0 0 168 32"><path fill="#f5eee0" d="M165.414 17.414a2 2 0 0 0 0-2.828L152.686 1.858a2 2 0 1 0-2.828 2.828L161.172 16l-11.314 11.314a2 2 0 1 0 2.828 2.828l12.728-12.728zM0 18h164v-4H0v4z" style="fill:var(--color2, #f5eee0)"/></symbol><symbol id="icon-cream1" viewBox="0 0 20 32"><path fill="none" stroke="#705a66" stroke-linecap="round" stroke-width=".787" d="M.588 1.353C2.026 1.065 2.706.345 4.362.566 7.43.975 9.408 4.001 9.664 6.863c.057.643-.176 8.081-2.338 6.459-1.915-1.437.364-4.231 2.431-3.357 3.315 1.402 4.584 5.444 3.658 8.705-.865 3.044-2.888 1.34-.278 1.065 6.532-.688 8.673 11.622 2.037 11.622" style="stroke:var(--color1, #705a66)"/></symbol><symbol id="icon-cream2" viewBox="0 0 15 32"><path fill="none" stroke="#705a66" stroke-linecap="round" stroke-width=".75" d="M8.905.964c.231.033.462.058-.088-.309C7.048-.524 3.895 2.679 3.168 3.833 1.607 6.308-1.318 12.92 2.065 15.175c1.184.79 3.152.967 4.457.397.71-.31 1.664-1.123.397-1.412-6.741-1.541-8.593 17.635 2.957 11.585 1.02-.534 3.405-1.563 3.928-2.758.379-.867-1.78.765-2.449 1.434-.987.987-1.763 2.719-1.611 4.126.338 3.134 2.735 3.001 5.119 3.001" style="stroke:var(--color1, #705a66)"/></symbol><symbol id="icon-eclair1" viewBox="0 0 22 32"><path fill="none" stroke="#705a66" stroke-linecap="round" stroke-width="3.2" d="M1.785 1.989c10.918 5.459 13.567 17.292 18.666 27.999" style="stroke:var(--color1, #705a66)"/></symbol><symbol id="icon-eclair2" viewBox="0 0 88 32"><path fill="none" stroke="#705a66" stroke-linecap="round" stroke-width="4" d="M2.291 2.037C4.221 12.653 15.72 22.121 24.759 26.45c18.099 8.667 44.641-5.247 61.14-12.746" style="stroke:var(--color1, #705a66)"/></symbol><symbol id="icon-menu" viewBox="0 0 36 32"><path fill="#705a66" d="M9.946 8.649h16.432a1.297 1.297 0 0 1 0 2.594H9.946a1.297 1.297 0 0 1 0-2.594zM9.946 14.703h16.432a1.297 1.297 0 0 1 0 2.594H9.946a1.297 1.297 0 0 1 0-2.594zM9.946 20.757h16.432a1.297 1.297 0 0 1 0 2.594H9.946a1.297 1.297 0 0 1 0-2.594z" style="fill:var(--color1, #705a66)"/></symbol><symbol id="icon-tart1" viewBox="0 0 11 32"><path fill="none" stroke="#705a66" stroke-linecap="round" stroke-width="2.595" d="M1.331 1.98c8.436 4.962 7.995 19.482 7.995 27.984" style="stroke:var(--color1, #705a66)"/></symbol><symbol id="icon-tart2" viewBox="0 0 12 32"><path fill="none" stroke="#705a66" stroke-linecap="round" stroke-width="5.053" d="M8.645 29.155c-.718-7.903-1.819-25.95-5.19-25.95" style="stroke:var(--color1, #705a66)"/></symbol><symbol id="icon-tart3" viewBox="0 0 26 32"><path fill="none" stroke="#705a66" stroke-linecap="round" stroke-width="4.174" d="M24.022 28.826C14.292 26.88 5.845 11.251 2.585 3.101" style="stroke:var(--color1, #705a66)"/></symbol><symbol id="icon-tart4" viewBox="0 0 12 32"><path fill="none" stroke="#705a66" stroke-linecap="round" stroke-width="1.2" d="M4.641.851C3.958 5.382 2.41 9.668 1.404 14.106c-.581 2.561-.915 4.903.074 7.458 1.337 3.451 3.916 6.146 7.096 7.95.835.474 1.617 1.028 2.412 1.558" style="stroke:var(--color1, #705a66)"/></symbol><symbol id="icon-Telegram" viewBox="0 0 37 32"><path fill="#705a66" d="M14.559 32.002a1.143 1.143 0 0 1-1.143-1.142v-10.4c0-.327.14-.638.386-.856l4.818-4.27-7.96 4.628a1.15 1.15 0 0 1-1.085.035L.632 15.54a1.141 1.141 0 0 1 .096-2.087L35.013.082a1.132 1.132 0 0 1 1.15.19c.32.268.468.69.386 1.1l-5.962 29.714a1.14 1.14 0 0 1-.648.815 1.138 1.138 0 0 1-1.039-.047l-9.56-5.444-3.866 5.14a1.148 1.148 0 0 1-.914.454zm4.471-8.229c.194 0 .388.049.565.149l9.059 5.159 5.24-26.113L3.961 14.643l6.083 3.032L27.4 7.585a1.137 1.137 0 0 1 1.499.318 1.14 1.14 0 0 1-.168 1.525l-13.03 11.544v6.467l2.415-3.21a1.14 1.14 0 0 1 .913-.457z" style="fill:var(--color1, #705a66)"/></symbol><symbol id="icon-Shopping-cart" viewBox="0 0 32 32"><path fill="#705a66" d="M9.333 24c-1.467 0-2.653 1.2-2.653 2.667s1.187 2.667 2.653 2.667c1.467 0 2.667-1.2 2.667-2.667S10.8 24 9.333 24zm-8-21.333v2.667H4l4.8 10.12L7 18.721a2.58 2.58 0 0 0-.333 1.28c0 1.467 1.2 2.667 2.667 2.667h16v-2.667H9.894a.33.33 0 0 1-.333-.333l.04-.16 1.2-2.173h9.933c1 0 1.88-.547 2.333-1.373l4.773-8.653a1.3 1.3 0 0 0 .16-.64c0-.733-.6-1.333-1.333-1.333H6.947L5.694 2.669h-4.36zM22.667 24c-1.467 0-2.653 1.2-2.653 2.667s1.187 2.667 2.653 2.667c1.467 0 2.667-1.2 2.667-2.667S24.134 24 22.667 24z" style="fill:var(--color1, #705a66)"/></symbol></defs></svg>