<svg xmlns="http://www.w3.org/2000/svg" aria-hidden="true" style="position:absolute;width:0;height:0;overflow:hidden"><defs><symbol id="icon-name" viewBox="0 0 55 32"><path fill="none" stroke="#705a66" stroke-linecap="round" stroke-width=".653" d="M25.334.995c-.201-1.405-.827-1.124-1.756-.367-2.834 2.311-4.529 5.59-6.31 8.722-2.338 4.111-4.29 8.416-6.522 12.582-1.564 2.917-3.462 6.269-6.349 8.085-1.683 1.059-3.8.565-4.265-1.563-.598-2.738.927-5.434 2.759-7.333 2.673-2.769 5.882-3.777 9.455-4.882 1.16-.359 2.734-.65 3.608-1.524" style="stroke:var(--color1, #705a66)"/><path fill="none" stroke="#705a66" stroke-linecap="round" stroke-width=".653" d="M21.165 5.163c-.496.124-1.145 1.383-1.351 1.717-1.474 2.399-2.588 5.061-3.695 7.642-2.349 5.473-4.198 11.112-5.721 16.865M16.129 24.44c4.088-2.373 7.973-5.35 11.289-8.732.918-.936 3.165-2.87 3.165-4.351 0-1.503-3.097 1.245-3.203 1.341-4.068 3.692-7.855 8.406-9.417 13.768-.137.47-.615 2.506.579 1.737 1.196-.771 2.237-2.115 2.895-3.358 1.288-2.432-1.84-.881-2.653-.067-.287.286-.79.964-.28 1.322.747.525 2.127-.256 2.788-.56 1.462-.671 2.945-1.32 4.371-2.065.424-.222 1.516-1.065 1.283-.646-.325.584-1.585 2.385-.01 2.248.893-.078 1.733-.723 2.479-1.158.642-.374 2.22-1.004 2.325-1.91.21-1.811-3.529-.234-3.994.347-.352.44-.44 1.092.067 1.447.756.53 1.863.064 2.615-.231 1.158-.455 2.249-1.08 3.367-1.621.5-.242 1.362-.791 1.92-.386.583.424-.351 1.694.772 1.409.799-.203 1.651-.599 2.373-.984.217-.116 1.368-1.108 1.64-.984.159.072-.227.31-.203.482.07.488 1.025.219 1.283.135 2.598-.847 4.659-3.688 6.329-5.693" style="stroke:var(--color1, #705a66)"/><path fill="none" stroke="#705a66" stroke-linecap="round" stroke-width=".653" d="M50.169 12.283c-.078-.353-3.257 3.622-3.599 4.197-1.415 2.384-2.605 4.894-3.695 7.439" style="stroke:var(--color1, #705a66)"/><path fill="none" stroke="#705a66" stroke-linecap="round" stroke-width=".653" d="M43.743 15.062c3.133.416 6.255.905 9.378 1.389M33.322 28.956c.775-1.198.804.686.772 1.206-.033.522-.27 1.252-.174 1.766.071.38 1.432-1.033 1.486-1.1.686-.842 1.274-1.846 2.238-2.412.486-.285.473.322.56.637.501 1.815 2.686.828 3.695.058.449-.343 1.835-2.282 2.151-1.235.557 1.844 3.097.605 3.917-.309 1.676-1.866-1.095-2.56-1.254-.868-.267 2.836 6.875.18 7.97-.174" style="stroke:var(--color1, #705a66)"/></symbol></defs></svg>