<svg xmlns="http://www.w3.org/2000/svg" aria-hidden="true" style="position:absolute;width:0;height:0;overflow:hidden"><defs><symbol id="icon-delete" viewBox="0 0 32 32"><path fill="#134563" d="M12.25 11.45h1.5v12h-1.5zM15.25 11.45h1.5v12h-1.5zM18.25 11.45h1.5v12h-1.5zM6.25 6.95h19.5v1.5H6.25z" style="fill:var(--color1, #134563)"/><path fill="#134563" d="M19.7 7.7h-1.4V6.2c0-.45-.35-.8-.8-.8h-3c-.45 0-.8.35-.8.8v1.5h-1.4V6.2c0-1.2 1-2.2 2.2-2.2h3c1.2 0 2.2 1 2.2 2.2v1.5z" style="fill:var(--color1, #134563)"/><path fill="#134563" d="M20.5 27.95h-9c-1.2 0-2.25-1-2.35-2.2l-1.4-18 1.5-.1 1.4 18c.05.45.45.8.85.8h9c.45 0 .85-.4.85-.8l1.4-18 1.5.1-1.4 18c-.1 1.25-1.15 2.2-2.35 2.2z" style="fill:var(--color1, #134563)"/></symbol></defs></svg>