<svg xmlns="http://www.w3.org/2000/svg" aria-hidden="true" style="position:absolute;width:0;height:0;overflow:hidden"><defs><symbol id="icon-arrow2" viewBox="0 0 59 32"><path fill="#705a66" d="M26.927 30.919a3.693 3.693 0 0 0 5.222 0L55.647 7.421a3.693 3.693 0 0 0-5.222-5.222L29.538 23.086 8.651 2.199a3.693 3.693 0 0 0-5.222 5.222l23.498 23.498zm-1.081-7.534v4.923h7.385v-4.923h-7.385z" style="fill:var(--color1, #705a66)"/></symbol><symbol id="icon-Instagram" viewBox="0 0 32 32"><path fill="#705a66" d="M31.91 9.405c-.077-1.704-.352-2.87-.743-3.888-.41-1.05-.954-1.947-1.844-2.831s-1.78-1.441-2.829-1.845C25.476.444 24.311.175 22.608.098 20.899.021 20.355.002 16.015.002c-4.346 0-4.891.019-6.593.096S6.554.45 5.536.841c-1.056.41-1.952.954-2.836 1.845S1.26 4.467.856 5.517C.466 6.535.19 7.701.113 9.405c-.077 1.71-.096 2.255-.096 6.597 0 4.349.019 4.894.096 6.597s.352 2.869.743 3.888c.41 1.051.954 1.947 1.844 2.831a7.727 7.727 0 0 0 2.829 1.845c1.018.397 2.183.666 3.886.743 1.709.077 2.253.096 6.593.096 4.347 0 4.891-.019 6.593-.096s2.868-.352 3.886-.743c1.05-.41 1.946-.954 2.829-1.845s1.44-1.781 1.844-2.831c.397-1.018.666-2.184.743-3.888.077-1.71.096-2.255.096-6.597s-.013-4.893-.09-6.597zm-2.874 13.067c-.071 1.563-.333 2.415-.551 2.972-.288.743-.64 1.281-1.203 1.845s-1.095.903-1.844 1.204c-.563.218-1.415.48-2.97.551-1.684.077-2.189.096-6.465.096s-4.782-.019-6.465-.096c-1.562-.071-2.413-.333-2.97-.551-.743-.288-1.28-.641-1.844-1.204s-.903-1.095-1.203-1.845c-.218-.564-.48-1.416-.55-2.972-.077-1.685-.096-2.191-.096-6.469s.019-4.785.096-6.469c.07-1.563.333-2.415.55-2.972.288-.743.64-1.281 1.203-1.845s1.095-.903 1.844-1.204c.563-.218 1.415-.48 2.97-.551 1.684-.077 2.189-.096 6.465-.096s4.782.019 6.465.096c1.562.07 2.413.333 2.97.551.743.288 1.28.64 1.844 1.204s.903 1.095 1.203 1.845c.218.564.48 1.416.551 2.972.077 1.685.096 2.191.096 6.469s-.026 4.785-.096 6.469z" style="fill:var(--color1, #705a66)"/><path fill="#705a66" d="M16.003 7.778a8.218 8.218 0 0 0-8.219 8.224c0 4.548 3.681 8.224 8.219 8.224s8.219-3.689 8.219-8.224a8.214 8.214 0 0 0-8.219-8.224zm0 13.56c-2.945 0-5.332-2.389-5.332-5.335s2.388-5.335 5.332-5.335c2.945 0 5.332 2.389 5.332 5.335s-2.388 5.335-5.332 5.335zM24.543 9.38c1.061 0 1.92-.86 1.92-1.922a1.92 1.92 0 1 0-1.92 1.922z" style="fill:var(--color1, #705a66)"/><path fill="#705a66" d="M0 16.002c0 4.349.019 4.894.096 6.597s.352 2.869.743 3.888c.41 1.051.954 1.947 1.844 2.831a7.804 7.804 0 0 0 2.829 1.845c1.018.397 2.183.666 3.886.743 1.709.077 2.253.096 6.593.096 4.347 0 4.891-.019 6.593-.096s2.868-.352 3.886-.743c1.05-.41 1.946-.954 2.829-1.845a7.82 7.82 0 0 0 1.844-2.831c.397-1.018.666-2.184.743-3.888.077-1.71.096-2.255.096-6.597 0-4.349-.019-4.893-.096-6.597s-.352-2.87-.743-3.888c-.41-1.05-.954-1.947-1.844-2.831A7.649 7.649 0 0 0 26.476.841C25.458.444 24.293.175 22.59.098 20.881.021 20.337.002 15.997.002c-4.346 0-4.891.019-6.593.096S6.536.45 5.518.841c-1.05.41-1.946.954-2.829 1.845S1.249 4.467.845 5.517C.448 6.535.173 7.701.096 9.405S0 11.653 0 16.002zm2.887 0c0-4.272.019-4.785.096-6.469.07-1.563.333-2.415.55-2.972.288-.743.64-1.281 1.203-1.845s1.095-.903 1.844-1.204c.563-.218 1.415-.48 2.97-.551 1.684-.077 2.189-.096 6.465-.096s4.782.019 6.465.096c1.562.07 2.413.333 2.97.551.743.288 1.28.64 1.844 1.204s.903 1.095 1.203 1.845c.218.564.48 1.416.551 2.972.077 1.685.096 2.191.096 6.469s-.019 4.785-.096 6.469c-.071 1.563-.333 2.415-.551 2.972-.288.743-.64 1.281-1.203 1.845s-1.095.903-1.844 1.204c-.563.218-1.415.48-2.97.551-1.684.077-2.189.096-6.465.096s-4.782-.019-6.465-.096c-1.562-.071-2.413-.333-2.97-.551-.743-.288-1.28-.641-1.844-1.204s-.903-1.095-1.203-1.845c-.218-.564-.48-1.416-.55-2.972-.083-1.685-.096-2.197-.096-6.469z" style="fill:var(--color1, #705a66)"/></symbol><symbol id="icon-Telegram" viewBox="0 0 37 32"><path fill="#705a66" d="M14.559 32.002a1.143 1.143 0 0 1-1.143-1.142v-10.4c0-.327.14-.638.386-.856l4.818-4.27-7.96 4.628a1.15 1.15 0 0 1-1.085.035L.632 15.54a1.141 1.141 0 0 1 .096-2.087L35.013.082a1.132 1.132 0 0 1 1.15.19c.32.268.468.69.386 1.1l-5.962 29.714a1.14 1.14 0 0 1-.648.815 1.138 1.138 0 0 1-1.039-.047l-9.56-5.444-3.866 5.14a1.148 1.148 0 0 1-.914.454zm4.471-8.229c.194 0 .388.049.565.149l9.059 5.159 5.24-26.113L3.961 14.643l6.083 3.032L27.4 7.585a1.137 1.137 0 0 1 1.499.318 1.14 1.14 0 0 1-.168 1.525l-13.03 11.544v6.467l2.415-3.21a1.14 1.14 0 0 1 .913-.457z" style="fill:var(--color1, #705a66)"/></symbol><symbol id="icon-viber" fill="none" viewBox="0 0 32 32"><path stroke="#f5f7f8" stroke-linecap="round" stroke-linejoin="round" stroke-width="1.264" d="M16 .889C8.157.889.889 2.151.889 13.798c0 7.458 2.993 10.657 7.196 11.991v3.744c-.032.315.041.632.209.901a1.442 1.442 0 0 0 2.396.075l3.368-3.83h1.943c7.843 0 15.111-1.248 15.111-12.909S23.844.89 16.001.89z" style="stroke:var(--color2, #f5f7f8)"/><path fill="none" stroke="#f5f7f8" stroke-linecap="round" stroke-linejoin="round" stroke-width="1.264" d="M16.001 10.929a2.15 2.15 0 0 1 2.158 2.151m-2.158-7.888c2.099 0 4.113.831 5.597 2.311s2.318 3.486 2.318 5.578M16.001 8.06c1.336 0 2.617.529 3.562 1.47s1.475 2.218 1.475 3.55m-10.075 5.021c1.871 1.865 6.001 4.303 7.915 4.303.84.009 1.656-.272 2.312-.795s1.11-1.255 1.286-2.074v-1.434s-1.77-.861-2.878-1.434-2.878 1.434-2.878 1.434a9.392 9.392 0 0 1-3.598-2.151 9.347 9.347 0 0 1-2.159-3.586s2.015-1.764 1.439-2.869-1.439-2.869-1.439-2.869H9.524c-.821.175-1.556.628-2.081 1.281s-.806 1.468-.798 2.304c0 1.908 2.447 6.024 4.317 7.889z" style="stroke:var(--color2, #f5f7f8)"/></defs></svg>