<svg xmlns="http://www.w3.org/2000/svg" aria-hidden="true" style="position:absolute;width:0;height:0;overflow:hidden"><defs><symbol id="icon-close" viewBox="0 0 32 32"><path fill="#705a66" d="M8.56 6.44a1.497 1.497 0 0 0-2.083.037A1.5 1.5 0 0 0 6.44 8.56L13.88 16l-7.44 7.44a1.504 1.504 0 0 0-.369 1.659 1.503 1.503 0 0 0 1.417.938 1.51 1.51 0 0 0 1.071-.478l7.44-7.44 7.44 7.44a1.504 1.504 0 0 0 1.659.369 1.503 1.503 0 0 0 .938-1.417 1.51 1.51 0 0 0-.478-1.071L18.118 16l7.44-7.44a1.497 1.497 0 0 0-.037-2.083 1.5 1.5 0 0 0-2.083-.037l-7.44 7.44-7.44-7.44z" style="fill:var(--color1, #705a66)"/></symbol></defs></svg>